<svg width="1000" height="1000" viewBox="0 0 1000 1000" fill="none" xmlns="http://www.w3.org/2000/svg">
<rect x="502.6" y="355" width="12" height="310" fill="#727272"/>
<rect x="451" y="436" width="12" height="229" fill="#727272"/>
<rect x="327" y="547.397" width="382.965" height="14.7728" transform="rotate(-13.3 327 547.397)" fill="#727272"/>
<rect y="706" width="1000" height="12" fill="url(#paint0_linear_26_424)"/>
<path d="M469.246 211.148L472.382 240.984" stroke="#727272" stroke-width="3" stroke-linecap="round"/>
<path d="M758.135 472.382L787.971 469.246" stroke="#727272" stroke-width="3" stroke-linecap="round"/>
<path d="M211.148 529.873L240.984 526.737" stroke="#727272" stroke-width="3" stroke-linecap="round"/>
<path d="M439.265 215.897L445.502 245.241" stroke="#727272" stroke-width="3" stroke-linecap="round"/>
<path d="M753.877 445.503L783.222 439.265" stroke="#727272" stroke-width="3" stroke-linecap="round"/>
<path d="M215.896 559.854L245.241 553.617" stroke="#727272" stroke-width="3" stroke-linecap="round"/>
<path d="M409.945 223.753L419.215 252.285" stroke="#727272" stroke-width="3" stroke-linecap="round"/>
<path d="M746.834 419.215L775.366 409.945" stroke="#727272" stroke-width="3" stroke-linecap="round"/>
<path d="M223.753 589.175L252.285 579.904" stroke="#727272" stroke-width="3" stroke-linecap="round"/>
<path d="M381.606 234.632L393.808 262.038" stroke="#727272" stroke-width="3" stroke-linecap="round"/>
<path d="M737.082 393.808L764.488 381.606" stroke="#727272" stroke-width="3" stroke-linecap="round"/>
<path d="M234.631 617.514L262.038 605.311" stroke="#727272" stroke-width="3" stroke-linecap="round"/>
<path d="M329.102 264.945L346.736 289.215" stroke="#727272" stroke-width="3" stroke-linecap="round"/>
<path d="M709.904 346.736L734.175 329.102" stroke="#727272" stroke-width="3" stroke-linecap="round"/>
<path d="M305.622 284.048L325.696 306.342" stroke="#727272" stroke-width="3" stroke-linecap="round"/>
<path d="M692.888 325.586L715.182 305.512" stroke="#727272" stroke-width="3" stroke-linecap="round"/>
<path d="M284.048 305.512L306.342 325.586" stroke="#727272" stroke-width="3" stroke-linecap="round"/>
<path d="M673.534 306.342L693.608 284.048" stroke="#727272" stroke-width="3" stroke-linecap="round"/>
<path d="M264.945 329.102L289.215 346.736" stroke="#727272" stroke-width="3" stroke-linecap="round"/>
<path d="M652.384 289.216L670.017 264.945" stroke="#727272" stroke-width="3" stroke-linecap="round"/>
<path d="M234.631 381.606L262.038 393.808" stroke="#727272" stroke-width="3" stroke-linecap="round"/>
<path d="M605.311 262.038L617.513 234.632" stroke="#727272" stroke-width="3" stroke-linecap="round"/>
<path d="M737.082 605.311L764.488 617.514" stroke="#727272" stroke-width="3" stroke-linecap="round"/>
<path d="M223.753 409.945L252.285 419.215" stroke="#727272" stroke-width="3" stroke-linecap="round"/>
<path d="M579.904 252.285L589.174 223.753" stroke="#727272" stroke-width="3" stroke-linecap="round"/>
<path d="M746.834 579.904L775.366 589.175" stroke="#727272" stroke-width="3" stroke-linecap="round"/>
<path d="M215.896 439.265L245.241 445.503" stroke="#727272" stroke-width="3" stroke-linecap="round"/>
<path d="M553.616 245.241L559.854 215.897" stroke="#727272" stroke-width="3" stroke-linecap="round"/>
<path d="M753.877 553.617L783.222 559.854" stroke="#727272" stroke-width="3" stroke-linecap="round"/>
<path d="M211.148 469.247L240.984 472.382" stroke="#727272" stroke-width="3" stroke-linecap="round"/>
<path d="M526.737 240.984L529.873 211.148" stroke="#727272" stroke-width="3" stroke-linecap="round"/>
<path d="M758.135 526.737L787.97 529.873" stroke="#727272" stroke-width="3" stroke-linecap="round"/>
<path d="M499.56 210.56V268.56" stroke="#727272" stroke-width="6" stroke-linecap="round"/>
<path d="M730.56 499.56H788.56" stroke="#727272" stroke-width="6" stroke-linecap="round"/>
<path d="M210.56 499.56H268.56" stroke="#727272" stroke-width="6" stroke-linecap="round"/>
<path d="M355.06 249.5L384.06 299.729" stroke="#727272" stroke-width="6" stroke-linecap="round"/>
<path d="M699.611 384.281L749.841 355.281" stroke="#727272" stroke-width="6" stroke-linecap="round"/>
<path d="M249.278 644.281L299.508 615.281" stroke="#727272" stroke-width="6" stroke-linecap="round"/>
<path d="M249.278 355.281L299.508 384.281" stroke="#727272" stroke-width="6" stroke-linecap="round"/>
<path d="M615.06 299.729L644.06 249.5" stroke="#727272" stroke-width="6" stroke-linecap="round"/>
<path d="M699.611 615.281L749.841 644.281" stroke="#727272" stroke-width="6" stroke-linecap="round"/>
<path d="M200.4 754V734.32H206.4V680.32H200.4V660.64H246V680.32H240V734.32H246V754H200.4ZM325.911 660.64H365.271V680.32H359.271V754H325.551L290.391 699.88V734.32H296.151V754H256.791V734.32H262.791V680.32H256.791V660.64H300.111L331.671 708.76V680.32H325.911V660.64ZM507.373 689.68H486.733V680.32H479.053V734.32H487.453V754H437.053V734.32H445.453V680.32H437.773V689.68H417.133V660.64H507.373V689.68ZM517.486 754V734.32H523.486V680.32H517.486V660.64H563.086V680.32H557.086V734.32H563.086V754H517.486ZM706.237 680.32H700.237V734.32H706.237V754H660.877V734.32H666.637V692.32L646.237 754H628.477L607.477 692.92V734.32H613.237V754H573.877V734.32H579.877V680.32H573.877V660.64H628.837L641.317 698.08L653.317 660.64H706.237V680.32ZM716.986 754V734.32H722.986V680.32H716.986V660.64H797.986V696.88H771.106V680.32H756.586V699.28H767.146V712.96H756.586V734.32H771.106V715.36H797.986V754H716.986Z" fill="#A9A9A9"/>
<path d="M541.656 785.408V805H535.58V763.956H548.972C553.147 763.956 556.557 764.886 559.202 766.746C561.889 768.606 563.232 771.065 563.232 774.124C563.232 777.141 562.157 779.539 560.008 781.316C557.9 783.052 555.027 784.251 551.39 784.912L568.006 805L560.814 805.868L546.43 785.408H541.656ZM541.656 783.548H545.624C553.064 783.548 556.784 780.613 556.784 774.744C556.784 773.752 556.536 772.636 556.04 771.396C555.089 768.792 553.064 767.077 549.964 766.25C547.153 766.25 544.384 766.601 541.656 767.304V783.548ZM572.637 805V763.956H597.499L596.879 768.11L585.347 766.188C583.322 766.188 581.09 766.539 578.651 767.242V782.308H592.415V784.664H578.651V802.768L597.871 800.846L597.251 805H572.637ZM604.972 805V763.956H611.048V801.652C613.569 802.396 615.594 802.768 617.124 802.768L628.346 800.846L627.602 805H604.972ZM651.366 763.212C656.74 763.212 661.183 764.989 664.696 768.544C668.21 772.057 669.966 776.955 669.966 783.238C669.966 787.289 669.264 790.843 667.858 793.902C666.453 796.919 664.614 799.255 662.34 800.908C657.918 804.132 653.04 805.744 647.708 805.744C642.376 805.744 637.954 803.967 634.44 800.412C630.968 796.816 629.232 791.877 629.232 785.594C629.232 782.329 629.687 779.394 630.596 776.79C631.547 774.145 632.766 771.995 634.254 770.342C635.784 768.689 637.54 767.304 639.524 766.188C643.162 764.204 647.109 763.212 651.366 763.212ZM638.904 797.932C639.979 799.751 641.426 801.177 643.244 802.21C645.063 803.202 647.15 803.698 649.506 803.698C651.904 803.698 654.032 803.099 655.892 801.9C657.752 800.701 659.199 799.131 660.232 797.188C662.34 793.303 663.394 789.128 663.394 784.664C663.394 779.167 662.299 774.744 660.108 771.396C657.67 767.635 653.64 765.754 648.018 765.754C644.009 767.159 640.971 769.577 638.904 773.008C636.838 776.439 635.804 780.324 635.804 784.664C635.804 789.955 636.838 794.377 638.904 797.932ZM647.46 760.422H644.98L655.644 748.766L659.116 751.866L647.46 760.422ZM701.128 787.33H707.142V803.636C703.588 805.041 699.31 805.744 694.308 805.744C688.232 805.744 683.004 804.132 678.622 800.908C676.473 799.296 674.758 797.188 673.476 794.584C672.195 791.939 671.554 789.025 671.554 785.842C671.554 782.659 672.05 779.807 673.042 777.286C674.034 774.723 675.316 772.595 676.886 770.9C678.498 769.205 680.358 767.759 682.466 766.56C686.393 764.328 690.712 763.212 695.424 763.212C697.243 763.212 699.206 763.419 701.314 763.832C703.422 764.245 705.034 764.679 706.15 765.134L705.53 769.288C699.95 766.932 695.321 765.754 691.642 765.754C687.468 766.829 684.161 769.04 681.722 772.388C679.325 775.736 678.126 779.828 678.126 784.664C678.126 790.699 679.718 795.369 682.9 798.676C686.083 801.941 690.278 803.574 695.486 803.574C697.553 803.574 699.434 803.367 701.128 802.954V787.33ZM720.515 763.956V805H714.811V763.956H720.515ZM747.885 763.212C753.259 763.212 757.702 764.989 761.215 768.544C764.729 772.057 766.485 776.955 766.485 783.238C766.485 787.289 765.783 790.843 764.377 793.902C762.972 796.919 761.133 799.255 758.859 800.908C754.437 804.132 749.559 805.744 744.227 805.744C738.895 805.744 734.473 803.967 730.959 800.412C727.487 796.816 725.751 791.877 725.751 785.594C725.751 782.329 726.206 779.394 727.115 776.79C728.066 774.145 729.285 771.995 730.773 770.342C732.303 768.689 734.059 767.304 736.043 766.188C739.681 764.204 743.628 763.212 747.885 763.212ZM735.423 797.932C736.498 799.751 737.945 801.177 739.763 802.21C741.582 803.202 743.669 803.698 746.025 803.698C748.423 803.698 750.551 803.099 752.411 801.9C754.271 800.701 755.718 799.131 756.751 797.188C758.859 793.303 759.913 789.128 759.913 784.664C759.913 779.167 758.818 774.744 756.627 771.396C754.189 767.635 750.159 765.754 744.537 765.754C740.528 767.159 737.49 769.577 735.423 773.008C733.357 776.439 732.323 780.324 732.323 784.664C732.323 789.955 733.357 794.377 735.423 797.932ZM776.133 771.086C776.133 772.905 776.836 774.599 778.241 776.17C779.688 777.699 781.424 779.063 783.449 780.262C785.516 781.419 787.562 782.618 789.587 783.858C791.613 785.057 793.328 786.545 794.733 788.322C796.18 790.099 796.903 792.063 796.903 794.212C796.903 797.601 795.643 800.371 793.121 802.52C790.641 804.669 787.273 805.744 783.015 805.744C778.758 805.744 774.542 804.938 770.367 803.326V800.412C774.583 802.52 778.159 803.574 781.093 803.574C784.069 803.574 786.384 802.851 788.037 801.404C789.691 799.957 790.517 797.953 790.517 795.39C790.517 793.654 789.835 792.083 788.471 790.678C787.107 789.231 785.454 787.991 783.511 786.958C781.569 785.883 779.626 784.788 777.683 783.672C775.741 782.556 774.087 781.151 772.723 779.456C771.359 777.72 770.677 775.633 770.677 773.194C770.677 770.755 771.752 768.482 773.901 766.374C776.092 764.266 779.337 763.212 783.635 763.212C786.446 763.212 790.001 763.853 794.299 765.134L793.679 769.35C788.099 766.953 783.325 765.754 779.357 765.754C777.208 766.787 776.133 768.565 776.133 771.086Z" fill="#727272"/>
<defs>
<linearGradient id="paint0_linear_26_424" x1="0" y1="706" x2="1000" y2="706" gradientUnits="userSpaceOnUse">
<stop stop-color="#F4DB78"/>
<stop offset="1" stop-color="#7F5F31"/>
</linearGradient>
</defs>
</svg>
