<svg width="440" height="262" viewBox="0 0 440 262" fill="none" xmlns="http://www.w3.org/2000/svg">
<path d="M69.6583 58.5999C46.205 63.1999 25.8588 82.3999 19.4442 106C17.139 114.7 17.139 130.3 19.4442 139C24.3554 157.1 36.7836 172.3 53.3212 180.5C67.8542 187.6 80.2825 189.4 95.016 186.4C120.073 181.4 140.419 161.8 146.433 137C148.137 129.8 148.137 114.9 146.433 108C140.319 82.9999 120.073 63.5999 95.016 58.5999C85.795 56.6999 79.18 56.6999 69.6583 58.5999ZM98.2232 77.7999C100.128 79.3999 100.729 81.2999 101.631 89.5999C102.633 98.1999 103.134 100.1 106.041 104.3C107.845 106.9 109.95 110.7 110.651 112.8C111.754 115.9 112.456 116.6 115.162 116.8L118.369 117.1L118.068 122.8C117.768 128.4 117.667 128.5 114.661 128.8C111.954 129.1 111.353 129.7 110.351 133C109.749 135.1 107.745 139 105.841 141.7C102.934 146 102.433 147.6 101.731 155.3C101.23 162.4 100.629 164.6 98.7244 166.8L96.4191 169.5H79.7813C63.4442 169.5 63.1435 169.5 60.7381 167C58.533 164.9 58.1321 163.2 57.5308 156C56.9294 148.5 56.4283 146.9 53.4214 142.4C49.3121 136.3 47.1071 129.4 47.1071 122.6C47.1071 115.4 48.5103 111.1 53.1207 104.2C56.4283 99.2999 57.1299 97.2999 57.1299 93.3999C57.2301 85.5999 58.7335 79.6999 61.139 77.7999C63.0433 76.1999 65.549 75.9999 79.6811 75.9999C94.0137 75.9999 96.3189 76.1999 98.2232 77.7999Z" fill="#939393"/>
<path d="M62.1412 80.3999C61.5399 81.1999 60.738 85.3999 60.4374 89.5999L59.836 97.3999L62.8428 95.1999C65.9499 92.9999 75.7722 89.9999 79.6811 89.9999C83.59 89.9999 93.5125 92.9999 96.5194 95.1999L99.5262 97.3999L98.8246 90.0999C97.8223 78.3999 98.8246 78.9999 79.7813 78.9999C66.7517 78.9999 63.1435 79.2999 62.1412 80.3999Z" fill="#939393"/>
<path d="M69.8588 94.4999C61.4396 97.6999 54.6242 104.4 51.5171 112.7C49.2119 118.5 50.0137 130.9 52.8201 136.5C60.2369 150.6 78.2779 156.6 92.5103 149.7C110.351 140.9 114.961 117.9 101.731 103.2C95.8178 96.5999 89.5034 93.5999 80.6834 93.2999C76.3736 93.0999 72.164 93.5999 69.8588 94.4999ZM80.9841 100.8C81.1845 103.2 80.8838 104 79.7813 104C78.5786 104 78.1777 103 78.1777 100.4C78.1777 95.8999 80.5832 96.1999 80.9841 100.8ZM68.8565 102.6C67.9545 103.5 66.0501 102 66.7517 100.8C67.1526 100.2 67.754 100.2 68.4556 100.9C69.057 101.5 69.2574 102.2 68.8565 102.6ZM92.3098 102.3C91.0068 103.6 89.7039 102.6 90.7062 101.1C91.0068 100.5 91.8087 100.3 92.41 100.6C93.0114 101 93.0114 101.6 92.3098 102.3ZM71.1617 113C77.877 118.8 80.7836 119.3 85.795 115.5C87.5991 114.1 89.5034 113 90.1048 113C92.2096 113 91.2073 114.8 87.6993 117.4C85.795 118.9 84.1914 120.9 84.1914 121.9C84.1914 122.9 83.2893 124.5 82.1868 125.5C79.4807 128 75.1709 126.2 75.1709 122.6C75.1709 120.9 73.5672 118.8 69.6583 115.5C66.6515 112.9 64.1458 110.1 64.1458 109.4C64.1458 107.2 64.9476 107.7 71.1617 113ZM61.139 111C61.139 111.5 60.7381 112 60.1367 112C59.6355 112 59.1344 111.5 59.1344 111C59.1344 110.4 59.6355 110 60.1367 110C60.7381 110 61.139 110.4 61.139 111ZM101.23 111C101.23 111.5 100.829 112 100.228 112C99.7267 112 99.2255 111.5 99.2255 111C99.2255 110.4 99.7267 110 100.228 110C100.829 110 101.23 110.4 101.23 111ZM105.239 121.5C105.239 122.5 104.137 123 101.731 123C99.3258 123 98.2232 122.5 98.2232 121.5C98.2232 120.5 99.3258 120 101.731 120C104.137 120 105.239 120.5 105.239 121.5ZM61.139 122C61.139 122.5 59.6355 123 57.7312 123C55.8269 123 53.9226 122.5 53.6219 122C53.221 121.4 54.6242 121 57.0296 121C59.3349 121 61.139 121.4 61.139 122ZM61.139 134.5C61.139 135.3 60.7381 136 60.1367 136C59.6355 136 59.1344 135.3 59.1344 134.5C59.1344 133.7 59.6355 133 60.1367 133C60.7381 133 61.139 133.7 61.139 134.5ZM101.631 135.1C101.33 135.6 100.629 135.8 100.128 135.4C99.6264 135.1 99.426 134.4 99.8269 133.9C100.128 133.4 100.829 133.2 101.33 133.6C101.831 133.9 102.032 134.6 101.631 135.1ZM80.9841 145.4C80.7836 146.9 80.2825 148.2 79.6811 148.3C78.4784 148.5 77.7768 144.5 78.6788 142.3C79.5809 139.8 81.385 142.2 80.9841 145.4ZM68.8565 144.6C67.9545 145.5 66.0501 144 66.7517 142.8C67.1526 142.2 67.754 142.2 68.4556 142.9C69.057 143.5 69.2574 144.2 68.8565 144.6ZM92.9112 144.6C92.0091 145.5 90.1048 144 90.8064 142.8C91.2073 142.2 91.8087 142.2 92.5103 142.9C93.1116 143.5 93.3121 144.2 92.9112 144.6Z" fill="#939393"/>
<path d="M78.1777 122.6C78.1777 124.3 80.3827 124 80.9841 122.2C81.1845 121.5 80.6834 121 79.7813 121C78.8793 121 78.1777 121.7 78.1777 122.6Z" fill="#939393"/>
<path d="M112.255 123C112.255 125.9 112.656 127 113.759 127C114.861 127 115.262 125.9 115.262 123C115.262 120.1 114.861 119 113.759 119C112.656 119 112.255 120.1 112.255 123Z" fill="#939393"/>
<path d="M60.3371 156.1C61.139 166.9 61.3394 167 79.6811 167C97.9226 167 97.8223 167 98.8246 156.2L99.5262 148.9L94.1139 151.7C89.8041 154 87.1982 154.6 80.1822 154.8C72.3645 155.1 71.1617 154.9 65.7494 152.2L59.836 149.2L60.3371 156.1Z" fill="#939393"/>
<path d="M166.378 107.5V121H171.39H176.401V107.5V94H171.39H166.378V107.5Z" fill="#939393"/>
<path d="M191.936 95.9999C192.337 97.0999 197.248 109.9 202.861 124.3L213.185 150.5L218.396 150.8L223.508 151.1V122.6V93.9999H218.998H214.487V109.2C214.487 117.5 214.187 124 213.786 123.6C213.285 123.2 210.478 116.5 207.472 108.7L201.859 94.4999L196.547 94.1999C191.636 93.8999 191.335 93.9999 191.936 95.9999Z" fill="#939393"/>
<path d="M262.296 94.7C261.895 95 261.595 97.3 261.595 99.7V104H277.631H293.667V99V94H278.333C269.813 94 262.597 94.3 262.296 94.7Z" fill="#939393"/>
<path d="M308.702 107.5V121H313.212H317.722V107.5V94H313.212H308.702V107.5Z" fill="#939393"/>
<path d="M333.759 95.2C333.759 95.8 336.966 104.6 340.975 114.7L348.091 133H352.2H356.31L363.626 114.2C367.636 103.9 370.843 95.2 370.843 94.7C370.843 94.3 368.638 94 365.932 94H361.021L357.112 103.8C355.007 109.2 352.902 113.6 352.301 113.7C351.8 113.8 349.494 109.4 347.39 103.9L343.481 94H338.569C335.563 94 333.759 94.4 333.759 95.2Z" fill="#939393"/>
<path d="M386.278 95.2999C386.078 95.9999 385.977 103.5 386.078 112L386.378 127.5L391.189 127.8L395.9 128.1V111.1V93.9999H391.39C388.583 93.9999 386.579 94.4999 386.278 95.2999Z" fill="#939393"/>
<path d="M399.909 99V104H406.925H413.941V99V94H406.925H399.909V99Z" fill="#939393"/>
<path d="M332.756 128.3V151H337.768H342.779V140.2C342.779 129.9 342.579 129.1 338.269 118.1C335.763 111.8 333.558 106.4 333.257 106.2C332.957 105.9 332.756 115.9 332.756 128.3Z" fill="#939393"/>
<path d="M366.433 117.5C361.923 128.7 361.822 129.3 361.822 140V151H366.834H371.845V128.5C371.845 116.1 371.645 106 371.444 106C371.244 106 368.939 111.2 366.433 117.5Z" fill="#939393"/>
<path d="M191.435 128.8V151H196.447H201.458V141C201.458 131.6 201.257 130.5 196.948 119.3C194.442 112.9 192.137 107.4 191.936 107.1C191.636 106.9 191.435 116.6 191.435 128.8Z" fill="#939393"/>
<path d="M272.62 129.5V151H277.631H282.642V129.5V108H277.631H272.62V129.5Z" fill="#939393"/>
<path d="M399.909 123V128H404.419H408.929V123V118H404.419H399.909V123Z" fill="#939393"/>
<path d="M166.378 137.5V151H171.39H176.401V137.5V124H171.39H166.378V137.5Z" fill="#939393"/>
<path d="M308.702 137.5V151H313.212H317.722V137.5V124H313.212H308.702V137.5Z" fill="#939393"/>
<path d="M386.579 131.7C386.178 132 385.877 136.5 385.877 141.7V151H390.888H395.9V141V131H391.59C389.185 131 386.879 131.3 386.579 131.7Z" fill="#939393"/>
<path d="M399.909 146V151H406.925H413.941V146V141H406.925H399.909V146Z" fill="#939393"/>
</svg>
