<svg width="230" height="310" viewBox="0 0 230 310" fill="none" xmlns="http://www.w3.org/2000/svg">
<path d="M109.967 0.822239C107.041 1.96213 104.913 4.27992 101.456 10.2074C99.7839 13.0191 97.732 16.0208 96.7441 16.9327C92.7545 20.8464 86.1431 22.4422 80.6716 20.8084C79.9497 20.5804 76.948 19.0985 74.0222 17.4647C67.4869 13.855 66.5369 13.5131 62.8513 13.741C58.2157 14.007 54.3401 16.5908 52.2883 20.8084C51.3004 22.8602 51.2244 23.2782 50.9964 30.5735C50.7684 37.0709 50.6164 38.4767 49.8945 40.3006C48.2606 44.5182 44.575 48.1658 40.3954 49.8377C38.6095 50.5216 37.2037 50.6736 30.7063 50.9016C24.1329 51.0916 22.879 51.2436 21.3211 51.9275C17.4455 53.6753 14.1778 58.0449 13.6079 62.3005C13.2279 65.1503 14.2158 68.114 17.4075 73.8514C20.9792 80.2729 21.3971 81.4127 21.3971 85.1744C21.3971 88.7461 20.4472 91.8998 18.4714 94.8635C16.9895 97.1433 15.3937 98.3592 9.23827 102.007C2.17093 106.224 0.043125 109.15 0.00512857 114.736C-0.0328679 117.319 0.119118 118.003 1.18302 120.169C2.74087 123.285 4.26073 124.653 10.0742 128.072C15.9636 131.568 17.9775 133.43 19.7633 137.002C20.9412 139.433 21.1312 140.231 21.3211 143.347C21.4351 145.627 21.3211 147.451 21.0172 148.401C20.7512 149.198 19.1174 152.542 17.3695 155.81C13.5319 162.915 12.9999 164.929 13.9498 168.729C14.7858 172.072 16.8756 175.036 19.4973 176.594C22.3471 178.304 23.4869 178.532 29.1864 178.608C31.9222 178.646 35.2658 178.798 36.7097 178.95C42.8271 179.634 48.4126 184.345 50.3504 190.539C50.5404 191.147 50.8444 195.098 50.9964 199.278C51.2624 206.535 51.3004 206.953 52.2883 208.891C54.3401 212.805 57.3418 215.046 61.7114 215.844C65.1691 216.452 67.6768 215.73 73.9083 212.235C76.682 210.715 79.7977 209.157 80.7856 208.815C84.5473 207.561 90.1707 208.321 94.0844 210.601C96.5162 212.045 98.454 214.324 101.494 219.492C105.673 226.559 107.383 228.193 111.905 229.333C115.856 230.359 120.15 229.295 123.342 226.445C124.102 225.761 126.153 222.874 127.825 220.024C131.169 214.476 133.107 212.121 135.691 210.601C139.528 208.321 145.228 207.561 148.913 208.815C149.901 209.157 153.093 210.753 156.057 212.387C162.478 215.958 164.758 216.604 168.405 215.806C171.293 215.198 174.713 213.109 176.119 211.019C178.247 207.979 178.437 207.029 178.703 198.898C178.93 192.856 179.12 190.957 179.652 189.589C182.084 183.585 187.062 179.634 192.913 178.988C194.395 178.798 197.891 178.646 200.702 178.608C206.212 178.532 208.188 178.038 211.037 176.062C212.709 174.922 214.913 171.844 215.559 169.679C215.825 168.805 215.977 166.943 215.863 165.119C215.711 162.307 215.521 161.699 214.039 158.964C213.165 157.33 211.531 154.328 210.468 152.352L208.53 148.742V144.373C208.53 140.193 208.606 139.889 209.822 137.268C211.493 133.658 213.735 131.568 219.701 128.072C222.284 126.553 225.02 124.729 225.78 124.007C230.758 119.523 231.024 110.974 226.35 106.148C225.552 105.275 222.892 103.451 220.499 102.007C214.229 98.2832 212.747 97.1053 211.075 94.5975C209.062 91.5958 208.226 88.3661 208.378 84.2245C208.53 81.1088 208.644 80.7668 210.62 77.0432C216.015 66.8221 216.015 66.8221 216.015 63.7444C216.015 59.9827 214.723 56.981 212.063 54.4733C208.872 51.4715 207.77 51.1676 199.031 50.9016C192.533 50.6736 191.127 50.5216 189.342 49.7997C185.086 48.1278 181.4 44.4802 179.804 40.3766C179.082 38.4767 178.93 37.1089 178.703 30.5735C178.475 23.3541 178.399 22.8602 177.449 20.8464C175.549 16.8947 171.597 14.083 167.456 13.741C163.504 13.4371 162.098 13.855 156.247 17.1227C149.559 20.8464 148.153 21.3403 144.506 21.3403C139.224 21.3023 134.095 18.9086 131.473 15.2229C130.751 14.273 129.041 11.4992 127.597 9.10547C124.596 4.05194 122.468 1.84814 119.58 0.746246C116.806 -0.279659 112.741 -0.241662 109.967 0.822239ZM165.518 81.4127C169.849 83.3886 171.901 86.4283 172.167 91.2538C172.471 96.7253 173.839 95.1295 142.34 126.553C115.78 153.074 114.602 154.214 112.399 155.012C109.473 156.076 106.243 155.924 103.356 154.518C100.468 153.074 70.9445 123.399 69.6527 120.625C67.8288 116.635 68.6267 111.772 71.7425 108.352C73.9083 105.92 76.834 104.667 80.2917 104.667C84.9652 104.667 85.4592 105.047 97.694 117.167L108.447 127.806L130.941 105.389C143.29 93.0397 153.967 82.5906 154.575 82.1347C157.69 80.0449 161.908 79.7409 165.518 81.4127Z" fill="#dedede"/>
<path d="M30.1743 221.733C29.4903 223.367 27.5905 227.889 25.9567 231.764C23.2589 238.148 9.92215 269.989 7.30039 276.372C6.69245 277.816 6.23649 279.032 6.31249 279.108C6.35048 279.184 8.09832 279.07 10.1881 278.88C12.2779 278.69 18.0154 278.158 22.9169 277.74C27.8185 277.322 35.9117 276.638 40.8893 276.182C45.8668 275.764 50.1604 275.46 50.4264 275.536C50.6924 275.612 57.4937 283.326 65.473 292.749C73.4902 302.134 80.1396 309.885 80.2536 309.923C80.3676 309.999 82.0394 306.238 83.9773 301.564C85.9151 296.928 91.3486 283.896 96.0601 272.611C100.772 261.326 104.685 251.979 104.723 251.789C104.761 251.637 103.431 250.953 101.722 250.269C94.9582 247.533 88.8788 242.555 85.0412 236.704C84.0532 235.146 83.1413 233.816 83.1033 233.74C83.0653 233.664 81.6595 234.31 79.9496 235.146C78.2778 236.02 75.3901 237.16 73.5662 237.73C70.4885 238.68 69.6906 238.756 63.7631 238.756C57.8357 238.756 57.0378 238.68 53.96 237.73C44.3089 234.766 37.5456 229.143 31.8081 219.378C31.4661 218.808 31.2382 219.15 30.1743 221.733Z" fill="#dedede"/>
<path d="M196.751 221.316C191.469 230.283 182.236 236.78 172.091 238.566C169.165 239.098 162.782 239.098 159.856 238.566C156.589 237.996 153.093 236.818 149.673 235.109C148.039 234.273 146.634 233.665 146.596 233.741C146.52 233.817 145.57 235.184 144.506 236.818C142.15 240.428 138.274 244.342 134.627 246.773C131.967 248.559 126.381 251.143 125.242 251.143C124.938 251.143 124.748 251.371 124.862 251.599C124.976 251.865 129.535 262.77 134.969 275.841C140.44 288.912 145.912 301.944 147.089 304.794C148.267 307.682 149.331 310.038 149.445 310C149.559 310 152.561 306.542 156.095 302.362C173.839 281.35 178.817 275.651 179.424 275.537C180.07 275.423 189.418 276.221 215.179 278.5C219.663 278.88 223.386 279.184 223.424 279.108C223.462 279.07 221.411 274.017 218.827 267.861C216.243 261.706 210.658 248.369 206.44 238.224C202.222 228.079 198.651 219.568 198.499 219.302C198.309 218.96 197.701 219.644 196.751 221.316Z" fill="#dedede"/>
</svg>
