<svg width="331" height="331" viewBox="0 0 331 331" fill="none" xmlns="http://www.w3.org/2000/svg">
<path d="M151.601 32.2597C133.822 37.1083 121.151 49.9087 116.69 67.5577C115.074 73.8933 115.204 84.1077 116.949 90.7019C123.091 114.105 146.752 129.814 170.09 125.935C181.598 124.06 190.26 119.47 198.147 111.066C203.707 105.118 207.974 97.296 209.784 89.4089C211.465 82.3622 210.883 70.5962 208.556 63.6788C203.643 49.2622 192.523 38.1427 178.106 33.2294C171.06 30.8374 158.518 30.3849 151.601 32.2597ZM181.856 65.1011C182.89 66.3294 183.149 67.2991 183.02 69.4325C182.955 70.9194 162.849 91.413 160.07 92.8999C159.1 93.4171 157.613 93.6757 156.837 93.4817C156.126 93.2878 152.764 90.3786 149.403 87.0169C142.808 80.4228 141.968 78.4187 144.489 75.6388C146.687 73.1821 149.273 73.8933 153.54 78.2247C155.673 80.3581 157.678 82.1036 158.065 82.1036C158.453 82.1036 162.785 78.0308 167.763 73.0528C175.521 65.295 177.072 64.0021 178.818 64.0021C179.917 64.0021 181.274 64.5192 181.856 65.1011Z" fill="#262626"/>
<path d="M68.8505 127.745C67.8162 128.262 66.5878 129.103 66.1353 129.491C65.7474 129.943 55.4037 148.756 43.2498 171.318C19.0712 216.314 19.2652 215.796 22.1097 220.774C23.4027 222.972 25.0189 224.071 34.2636 228.985C45.4478 234.932 49.9085 236.355 54.4986 235.643C58.5068 234.997 63.4847 232.54 66.006 230.019L68.204 227.821L74.1517 231.377C77.4488 233.381 80.164 235.191 80.164 235.45C80.164 235.708 78.7417 238.1 76.9962 240.815C72.3415 247.862 72.0183 252.969 75.7679 258.658C77.5781 261.309 83.3318 264.412 86.5642 264.412H88.8916L88.6976 267.386C88.0511 274.95 94.516 281.867 102.209 281.867C103.179 281.867 105.118 281.415 106.605 280.897L109.256 279.992L110.29 282.384C113.135 289.237 121.151 292.728 127.81 289.948C129.038 289.431 130.202 288.978 130.267 288.978C130.396 288.978 130.654 289.884 130.913 290.983C131.495 293.568 134.663 297.124 137.895 298.805C139.899 299.839 141.386 300.033 144.425 299.839C150.178 299.516 152.635 297.706 157.096 290.853L160.716 285.164L168.732 290.013C176.684 294.797 177.912 295.185 183.278 294.861C188.903 294.474 195.044 289.366 196.531 283.677L197.242 281.221H200.927C207.845 281.221 213.404 277.342 215.667 271.006L216.766 267.968H221.033C229.954 267.903 236.613 261.18 236.613 252.258C236.613 249.801 236.807 249.608 238.941 248.896C241.979 247.862 246.052 244.177 247.797 240.88C248.767 238.941 249.155 237.001 249.155 233.898C249.155 229.502 249.155 229.502 251.159 229.179C252.193 229.049 254.844 228.597 256.913 228.209C261.891 227.368 261.632 227.304 262.085 229.114C262.279 229.954 263.895 232.282 265.705 234.221C269.843 238.747 273.98 240.621 279.863 240.557C285.681 240.492 304.623 235.385 306.886 233.251C308.89 231.377 310.312 228.726 310.312 226.787C310.312 223.877 286.263 136.085 284.841 134.016C283.354 131.624 280.316 129.943 277.665 129.943C276.76 129.943 270.812 131.43 264.541 133.24C251.741 136.861 248.121 138.8 244.953 143.519C243.143 146.235 241.139 151.665 241.139 153.863C241.139 154.704 239.846 155.156 235.514 155.997C228.015 157.484 224.783 156.837 214.503 151.988C201.832 145.976 199.57 145.265 193.299 145.2C187.028 145.2 182.438 146.364 175.52 149.726L170.995 151.924L165.888 151.213C162.72 150.76 157.096 150.566 151.342 150.825C143.132 151.148 140.61 151.536 131.56 153.863C120.957 156.578 113.587 157.354 108.545 156.255C106.282 155.803 106.153 155.609 105.765 152.7C105.118 148.562 102.726 143.649 99.7525 140.804C98.3949 139.511 92.5119 135.826 86.6289 132.594C75.1861 126.258 72.8587 125.612 68.8505 127.745ZM289.302 182.632C295.573 206.099 300.809 225.558 300.874 225.882C301.003 226.657 282.708 231.441 279.54 231.441C276.631 231.441 273.463 229.631 271.459 226.916C270.554 225.688 252.775 165.5 250.642 156.384C250.06 153.928 251.353 150.114 253.616 147.592C255.426 145.653 256.848 145.071 266.351 142.291C272.235 140.61 277.212 139.382 277.406 139.576C277.6 139.77 282.966 159.164 289.302 182.632ZM156.772 162.461C149.467 168.668 138.154 179.464 136.731 181.597C134.792 184.507 133.628 189.484 134.21 192.523C136.279 203.836 147.98 209.913 158.001 204.806C159.423 204.095 164.595 201.057 169.443 198.083C180.304 191.424 181.403 190.971 184.377 192.2C186.317 193.04 217.994 214.697 232.67 225.235C239.458 230.084 241.074 232.67 239.652 236.161C238.488 238.941 236.29 240.492 233.639 240.492C231.441 240.492 229.567 239.328 213.404 227.756C203.513 220.645 201.574 219.934 199.117 222.391C197.242 224.265 197.436 226.981 199.634 228.985C200.604 229.89 206.81 234.415 213.404 239.07C219.999 243.725 225.817 248.056 226.334 248.638C227.692 250.254 227.498 254.973 226.011 256.59C224.265 258.464 221.033 259.434 218.9 258.594C217.994 258.27 210.107 252.905 201.38 246.698C192.652 240.492 184.959 235.191 184.183 234.997C182.567 234.48 179.787 236.29 179.011 238.294C178.753 239.07 178.882 240.298 179.27 241.203C179.723 242.044 185.864 246.892 192.976 251.935C200.022 257.042 206.228 261.826 206.681 262.602C208.233 265.446 207.069 270.036 204.354 271.523C200.798 273.398 199.311 272.622 183.214 261.18C174.68 255.167 167.052 249.995 166.211 249.801C165.241 249.543 163.948 249.737 162.979 250.254C161.556 251.03 161.298 251.676 161.298 254.068V256.913L172.87 265.123C185.993 274.497 187.222 275.532 187.804 277.794C188.321 280.057 187.093 283.483 185.218 284.712C182.309 286.586 179.852 286.005 172.741 281.673C167.116 278.311 166.146 277.471 166.47 276.372C167.375 273.527 167.569 268.291 166.793 266.093C165.047 260.727 159.876 257.107 154.057 257.107H150.631V254.521C150.631 247.603 144.489 241.785 137.119 241.785H134.016L133.693 238.488C133.046 231.959 127.293 226.722 120.634 226.722C117.854 226.722 115.462 227.368 111.712 229.373C111.389 229.502 110.937 228.92 110.613 228.08C109.644 225.429 106.541 222.261 103.761 221.033C97.1666 217.994 89.4087 220.71 85.5945 227.433C85.4652 227.692 73.1173 220.193 73.1173 219.805C73.0527 219.611 79.9054 207.263 88.2451 192.329C102.92 165.952 103.373 165.177 105.183 165.371C106.153 165.435 110.613 165.565 115.074 165.629C121.992 165.629 124.06 165.435 129.62 163.884C142.162 160.457 145.718 159.875 154.186 159.811L160.005 159.746L156.772 162.461Z" fill="#262626"/>
</svg>
