<svg width="461" height="308" viewBox="0 0 461 308" fill="none" xmlns="http://www.w3.org/2000/svg">
<path d="M214.305 8.0018C179.278 13.1351 152.461 25.9685 128.884 48.691C106.964 69.9038 92.652 96.4763 86.4752 127.578C84.9687 135.203 84.7427 138.449 84.7427 154.755C84.818 172.042 84.8933 173.854 86.8518 183.064C100.411 246.777 150.88 293.204 214.681 300.526C224.399 301.583 246.62 301.055 254.981 299.469C292.343 292.373 322.474 274.709 344.771 246.853C360.966 226.621 370.533 205.56 375.655 178.534C377.237 170.155 377.764 147.885 376.709 138.147C369.403 74.2822 323.152 23.7038 259.802 10.1155C251.592 8.37925 248.428 8.15278 233.513 7.92631C224.173 7.77533 215.585 7.85082 214.305 8.0018ZM246.093 41.5949C254.755 44.2371 261.233 48.0871 267.486 54.3528C272.156 58.9577 273.888 61.3734 276.675 67.1861C279.462 72.9989 283.982 86.9646 283.982 89.9087C283.982 90.2861 283.153 90.5881 282.174 90.5881C278.107 90.5881 276.826 94.3626 277.353 104.554C277.73 111.348 278.559 113.235 281.421 113.235C282.325 113.235 283.304 113.537 283.53 113.915C283.907 114.518 280.14 127.88 278.333 132.485C277.127 135.429 283.304 128.786 285.338 124.936C287.146 121.539 287.372 120.105 287.748 110.216L288.2 99.2695L290.31 103.723C292.268 107.724 292.419 108.706 292.117 114.292C291.59 124.106 286.845 132.259 278.182 138.298C274.943 140.487 274.19 140.185 275.771 137.241L276.6 135.656L274.114 137.241C269.444 140.034 261.836 142.752 253.776 144.337L245.716 145.922L243.682 144.337C241.799 142.827 240.669 142.676 231.178 142.676C221.687 142.676 220.557 142.827 219.201 144.186C217.393 145.998 217.243 148.489 218.975 150.376C220.03 151.584 221.461 151.735 231.404 151.735C241.648 151.735 242.703 151.584 243.833 150.225C244.661 149.319 246.093 148.716 247.599 148.716C248.88 148.716 252.42 148.187 255.433 147.583C258.446 146.904 261.007 146.526 261.158 146.677C261.685 147.206 255.433 154.679 253.023 156.416L250.688 158.152L251.064 164.719C251.366 170.079 251.818 172.193 253.55 175.666C256.036 180.723 256.036 180.723 271.553 186.461C291.515 193.783 296.938 197.482 301.307 206.39C303.944 211.75 304.697 216.883 305.45 234.246L305.978 246.098H230.5H154.947L155.475 235.378C156.68 210.618 158.186 205.333 165.644 198.313C170.013 194.161 174.532 191.971 191.33 185.63C198.185 183.064 204.286 180.497 205.04 179.893C207.601 177.628 209.635 171.212 209.936 164.191L210.237 157.397L206.621 153.849L203.006 150.301L203.232 153.32C203.684 158.076 200.671 166.305 195.699 173.778C190.803 181.101 188.844 183.064 191.33 178.157C193.138 174.609 195.096 165.323 195.096 160.341C195.096 155.283 193.967 151.509 186.735 132.259C174.758 100.477 173.779 91.2675 180.558 75.0371C188.844 55.1832 203.382 43.1047 222.892 40.0096C229.069 39.0283 240.142 39.7832 246.093 41.5949ZM272.306 144.715C271.177 146.753 269.519 149.697 268.54 151.358C266.054 155.585 264.849 163.965 265.376 173.627C265.828 180.723 265.753 181.403 264.774 180.044C262.514 177.1 261.761 172.57 261.836 161.926C261.911 156.114 262.213 150.074 262.589 148.489C263.192 145.847 263.719 145.394 268.163 143.431C270.875 142.299 273.286 141.317 273.662 141.242C273.964 141.167 273.361 142.752 272.306 144.715Z" fill="#dedede"/>
</svg>
