<svg width="388" height="194" viewBox="0 0 388 194" fill="none" xmlns="http://www.w3.org/2000/svg">
<path d="M76.0336 0.701667C72.049 2.0852 68.5071 6.67852 68.5071 10.331V11.9913L53.8417 12.1573L39.1763 12.3233L37.4054 14.1496C35.8558 15.6991 35.5791 16.3079 35.5791 18.6876C35.5791 20.7905 35.8558 21.7313 36.8519 22.6721L38.1248 23.945L84.7221 24.2217C110.345 24.3877 131.762 24.7198 132.316 24.9965C133.478 25.5499 134.917 28.1509 134.917 29.7558C134.917 31.6374 133.312 34.1278 131.43 35.2899C129.715 36.3414 128.22 36.3968 72.4917 36.3968H15.3795L13.3873 38.223C11.9484 39.4959 11.3396 40.6027 11.1183 42.2629C10.8416 44.2552 11.0629 44.8086 12.5018 46.4135L14.162 48.2951L64.0798 48.4612C118.868 48.6272 115.769 48.4058 117.207 51.9477C118.204 54.3273 117.152 57.5371 114.828 59.1974L113.057 60.4702L70.2227 60.6362C28.7721 60.7469 27.3886 60.8023 25.8944 61.8537C22.6293 64.1781 22.3525 69.1588 25.3963 71.4278C26.8352 72.4793 28.2187 72.4793 80.4055 72.4793C109.847 72.4793 134.751 72.7006 135.636 72.9773C138.403 73.7521 139.621 75.357 139.621 78.1794C139.621 80.227 139.289 80.9465 137.794 82.4407L136.023 84.267L70.2227 84.5437L4.36664 84.8204L2.81708 85.9825C0.935479 87.4214 -0.392711 90.6312 0.10536 92.5681C0.326725 93.3983 1.1015 94.6711 1.82094 95.3905L3.14913 96.7187H49.9678C100.218 96.7187 99.1109 96.6634 100.605 99.4305C101.435 100.98 101.269 103.692 100.328 105.573C98.6681 108.783 98.004 108.894 78.0812 108.894H59.9293L58.0476 130.698C56.9962 142.707 56.2767 153.72 56.4428 155.27C56.7748 158.59 58.3244 160.97 61.1468 162.353C63.0284 163.294 64.6886 163.405 77.0297 163.405H90.8097L91.8058 158.701C95.9011 139.664 113.278 125.33 132.426 125.275C142.498 125.275 150.634 128.485 157.33 135.126C163.971 141.656 166.904 148.407 167.513 158.148L167.845 163.405L228.997 163.571L290.149 163.682L291.145 158.867C291.809 155.713 293.027 152.115 294.687 148.74C296.956 144.146 298.007 142.763 302.822 137.948C309.186 131.694 314.167 128.651 321.693 126.548C326.895 125.109 335.418 124.832 340.233 125.994C346.265 127.433 352.186 130.754 356.835 135.347C363.31 141.822 366.52 149.238 367.018 158.978L367.239 163.405L371.168 163.35C376.592 163.239 379.746 161.357 381.794 157.041C383.233 154.163 383.399 152.724 385.557 126.603C387.937 97.4935 387.937 97.3275 385.613 91.0186C384.063 86.9233 383.288 86.0379 363.365 64.3994C348.921 48.6825 346.099 45.8601 343.11 44.2552C337.023 40.9348 336.082 40.8241 312.451 40.8241H290.979V39.2192C290.979 38.3337 291.477 31.9141 292.141 24.9411C292.75 18.0235 293.193 10.8291 293.082 9.00285C292.861 5.18431 291.422 2.63861 288.599 1.08906C286.939 0.203596 280.353 0.148254 182.51 0.0375719C94.7389 -0.0731106 77.8598 0.0375719 76.0336 0.701667ZM336.525 52.8885C339.347 54.2167 341.395 56.2643 354.345 70.4316L369.01 86.4806L333.204 86.6466C313.558 86.702 297.343 86.6466 297.233 86.5359C297.122 86.4253 297.731 78.4561 298.561 68.8267L300.055 51.3389H316.713H333.315L336.525 52.8885Z" fill="#dedede"/>
<path d="M124.955 133.576C113.057 136.122 102.321 146.692 99.443 158.701C96.8973 169.326 100.66 181.336 108.464 187.534C118.702 195.669 132.205 196.167 144.103 188.807C155.614 181.723 162.145 167.611 159.599 155.381C156.223 139.166 141.613 129.979 124.955 133.576ZM134.972 149.072C138.625 150.123 142.831 154.163 143.716 157.428C144.878 161.468 144.491 165.397 142.609 169.105C139.012 176.355 131.375 179.952 124.181 177.849C118.204 176.078 114.44 171.097 114.44 164.955C114.44 157.483 118.591 151.673 125.675 149.238C129.272 147.965 131.154 147.965 134.972 149.072Z" fill="#dedede"/>
<path d="M324.461 133.52C312.452 136.177 302.158 146.027 299.004 157.926C297.841 162.353 297.786 169.879 299.004 173.975C301.494 182.774 307.969 189.526 316.823 192.569C322.081 194.34 330.05 194.34 335.529 192.514C348.368 188.308 357.444 177.572 359.16 164.567C361.816 144.754 344.328 129.093 324.461 133.52ZM336.138 149.735C344.605 154.107 346.32 165.175 339.679 172.702C332.43 181.003 319.812 180.062 315.219 170.931C309.906 160.416 319.092 147.466 331.157 148.407C332.706 148.518 334.975 149.126 336.138 149.735Z" fill="#dedede"/>
</svg>
